<?xml version="1.0" encoding="UTF-8"?>
<svg xmlns="http://www.w3.org/2000/svg" xmlns:xlink="http://www.w3.org/1999/xlink" width="32px" height="32px" viewBox="0 0 32 32" version="1.1">
  <defs>
    <!-- Define a rounded rectangle mask -->
    <mask id="roundedMask">
      <rect x="0" y="0" width="32" height="32" rx="6" ry="6" fill="white"/>
    </mask>
  </defs>
  
  <!-- Apply the mask to the entire content -->
  <g mask="url(#roundedMask)">
    <g id="surface1">
      <path style=" stroke:none;fill-rule:nonzero;fill:rgb(99.215686%,81.568629%,9.019608%);fill-opacity:1;" d="M 0 0 C 10.558594 0 21.121094 0 32 0 C 32 10.558594 32 21.121094 32 32 C 21.441406 32 10.878906 32 0 32 C 0 21.441406 0 10.878906 0 0 Z M 0 0 "/>
      <path style=" stroke:none;fill-rule:nonzero;fill:rgb(11.372549%,23.137255%,31.37255%);fill-opacity:1;" d="M 22.503906 12.476562 C 22.828125 12.695312 23.042969 12.964844 23.230469 13.304688 C 23.246094 13.335938 23.246094 13.335938 23.265625 13.371094 C 23.71875 14.21875 23.71875 15.308594 23.453125 16.21875 C 23.382812 16.433594 23.28125 16.632812 23.171875 16.828125 C 23.152344 16.859375 23.136719 16.890625 23.121094 16.921875 C 22.886719 17.308594 22.535156 17.617188 22.105469 17.757812 C 21.761719 17.832031 21.402344 17.785156 21.097656 17.609375 C 20.675781 17.316406 20.417969 16.9375 20.207031 16.472656 C 20.195312 16.453125 20.1875 16.433594 20.175781 16.410156 C 20.019531 16.066406 19.953125 15.636719 19.941406 15.257812 C 19.941406 15.230469 19.941406 15.230469 19.9375 15.199219 C 19.910156 14.339844 20.085938 13.460938 20.671875 12.800781 C 21.179688 12.261719 21.839844 12.085938 22.503906 12.476562 Z M 22.503906 12.476562 "/>
      <path style=" stroke:none;fill-rule:nonzero;fill:rgb(11.372549%,23.137255%,31.37255%);fill-opacity:1;" d="M 10.949219 12.476562 C 11.273438 12.695312 11.488281 12.964844 11.675781 13.304688 C 11.691406 13.335938 11.691406 13.335938 11.710938 13.371094 C 12.160156 14.21875 12.164062 15.308594 11.898438 16.21875 C 11.828125 16.433594 11.726562 16.632812 11.613281 16.828125 C 11.597656 16.859375 11.582031 16.890625 11.5625 16.921875 C 11.332031 17.308594 10.980469 17.617188 10.546875 17.757812 C 10.203125 17.832031 9.847656 17.785156 9.542969 17.609375 C 9.121094 17.316406 8.863281 16.9375 8.652344 16.472656 C 8.640625 16.453125 8.632812 16.433594 8.621094 16.410156 C 8.464844 16.066406 8.398438 15.636719 8.386719 15.257812 C 8.382812 15.230469 8.382812 15.230469 8.382812 15.199219 C 8.355469 14.339844 8.53125 13.460938 9.113281 12.800781 C 9.625 12.261719 10.285156 12.085938 10.949219 12.476562 Z M 10.949219 12.476562 "/>
      <path style=" stroke:none;fill-rule:nonzero;fill:rgb(11.764706%,23.137255%,31.37255%);fill-opacity:1;" d="M 13.46875 18.738281 C 13.609375 18.8125 13.730469 18.914062 13.855469 19.007812 C 14.296875 19.335938 14.847656 19.578125 15.378906 19.703125 C 15.433594 19.71875 15.433594 19.71875 15.488281 19.730469 C 16.339844 19.921875 17.230469 19.589844 17.949219 19.136719 C 18.097656 19.039062 18.238281 18.945312 18.375 18.839844 C 18.589844 18.675781 18.789062 18.671875 19.050781 18.695312 C 19.207031 18.734375 19.289062 18.804688 19.375 18.933594 C 19.496094 19.144531 19.496094 19.378906 19.449219 19.613281 C 19.253906 20.203125 18.71875 20.558594 18.195312 20.832031 C 17.714844 21.078125 17.183594 21.25 16.652344 21.332031 C 16.617188 21.339844 16.585938 21.34375 16.550781 21.351562 C 15.636719 21.503906 14.6875 21.265625 13.867188 20.859375 C 13.847656 20.851562 13.832031 20.839844 13.8125 20.832031 C 13.308594 20.582031 12.800781 20.226562 12.578125 19.695312 C 12.5 19.453125 12.488281 19.210938 12.597656 18.976562 C 12.777344 18.664062 13.144531 18.605469 13.46875 18.738281 Z M 13.46875 18.738281 "/>
    </g>
  </g>
</svg>
