<svg id="Layer_1" viewBox="0 0 24 24" xmlns="http://www.w3.org/2000/svg" data-name="Layer 1"><path d="m12 1c-5.72 0-9 3.098-9 8.5 0 4.835 2.557 6.881 4.702 7.747.188.076.313.258.321.464.033.975.109 1.869.226 2.656.19 1.3 1.195 2.317 2.501 2.531.413.067.833.102 1.25.102.408 0 .818-.033 1.217-.096 1.309-.208 2.314-1.222 2.503-2.521.124-.846.205-1.745.242-2.675.008-.202.132-.38.317-.454 2.153-.862 4.721-2.908 4.721-7.754 0-5.402-3.28-8.5-9-8.5zm.901 19.929c-.597.096-1.224.094-1.828-.004-.442-.072-.782-.413-.846-.848-.058-.393-.103-.824-.138-1.276.561.108 1.229.2 1.911.2.672 0 1.331-.089 1.887-.195-.046.525-.1.971-.146 1.289-.062.429-.399.764-.84.834zm2.635-5.532c-.605.242-1.058.717-1.322 1.288-.512.132-1.37.315-2.214.315-.854 0-1.722-.187-2.231-.32-.264-.571-.717-1.046-1.319-1.288-2.289-.923-3.449-2.906-3.449-5.892 0-4.313 2.355-6.5 7-6.5s7 2.187 7 6.5c0 2.993-1.166 4.977-3.464 5.897zm-2.536-1.397c0 .552-.448 1-1 1s-1-.448-1-1 .448-1 1-1 1 .448 1 1zm-.964-1.956c-.553 0-.998-.454-.998-1.006 0-.924.64-1.722 1.67-2.083.132-.046.33-.115.33-.917 0-.878-.121-1-1-1s-1 .122-1 1c0 .552-.447 1-1 1s-1-.448-1-1c0-1.991 1.01-3 3-3s3 1.009 3 3c0 1.474-.562 2.418-1.67 2.805-.178.062-.311.162-.334.207 0 .552-.446.995-.998.995z"/></svg>